<?xml version="1.0" encoding="utf-8"?>
<!-- Generator: Adobe Illustrator 26.0.0, SVG Export Plug-In . SVG Version: 6.00 Build 0)  -->
<svg version="1.1" id="Layer_1" xmlns="http://www.w3.org/2000/svg" xmlns:xlink="http://www.w3.org/1999/xlink" x="0px" y="0px"
	 viewBox="0 0 1305.2 590.8" style="enable-background:new 0 0 1305.2 590.8;" xml:space="preserve">
<style type="text/css">
	.st0{clip-path:url(#XMLID_00000056400425760755688960000011352722531186330037_);fill:#01A2FD;}
	.st1{clip-path:url(#XMLID_00000056400425760755688960000011352722531186330037_);fill:#F97707;}
	.st2{clip-path:url(#XMLID_00000056400425760755688960000011352722531186330037_);fill:#014DAF;}
	.st3{fill:#F97707;}
	.st4{fill:#FEC401;}
	.st5{fill:#014DAF;}
	.st6{clip-path:url(#XMLID_00000080195957579973187240000007588651314816955784_);fill:#FEC401;}
	.st7{clip-path:url(#XMLID_00000080195957579973187240000007588651314816955784_);fill:#01A2FD;}
	.st8{clip-path:url(#XMLID_00000080195957579973187240000007588651314816955784_);fill:#014DAF;}
	.st9{clip-path:url(#XMLID_00000080195957579973187240000007588651314816955784_);fill:#F97707;}
</style>
<g>
	<g>
		<g>
			<path d="M707.2,348.8L707,277l-35.2,59.1h-12.5l-35-57.5v70.2h-26V229.2h22.9l44.7,74.3l44.1-74.3h22.7l0.3,119.5H707.2z"/>
			<path d="M806.3,342.8c-10-5.3-17.8-12.7-23.4-22.1c-5.6-9.4-8.5-19.9-8.5-31.7c0-11.7,2.8-22.3,8.5-31.7
				c5.6-9.4,13.4-16.8,23.4-22.1c10-5.3,21.1-8,33.6-8s23.6,2.7,33.5,8c9.9,5.4,17.7,12.7,23.4,22.1c5.7,9.4,8.5,20,8.5,31.7
				c0,11.7-2.8,22.3-8.5,31.7c-5.7,9.4-13.5,16.8-23.4,22.1c-9.9,5.4-21.1,8-33.5,8S816.2,348.1,806.3,342.8z M859,322.4
				c5.7-3.2,10.2-7.8,13.4-13.6c3.2-5.8,4.9-12.4,4.9-19.8c0-7.4-1.6-14-4.9-19.8c-3.2-5.8-7.7-10.3-13.4-13.6
				c-5.7-3.2-12.1-4.9-19.1-4.9c-7.1,0-13.4,1.6-19.1,4.9s-10.2,7.8-13.4,13.6s-4.9,12.4-4.9,19.8c0,7.4,1.6,14,4.9,19.8
				c3.2,5.8,7.7,10.3,13.4,13.6c5.7,3.2,12.1,4.9,19.1,4.9C846.9,327.2,853.3,325.6,859,322.4z"/>
			<path d="M958.4,347c-8.8-2.6-15.9-5.9-21.3-10l9.4-20.8c5.1,3.8,11.2,6.8,18.3,9c7.1,2.3,14.1,3.4,21.2,3.4
				c7.9,0,13.7-1.2,17.4-3.5c3.8-2.3,5.6-5.4,5.6-9.3c0-2.8-1.1-5.2-3.3-7.1c-2.2-1.9-5.1-3.4-8.5-4.5c-3.5-1.1-8.2-2.4-14.1-3.8
				c-9.1-2.2-16.6-4.3-22.4-6.5c-5.8-2.2-10.8-5.6-14.9-10.4c-4.2-4.8-6.2-11.2-6.2-19.1c0-6.9,1.9-13.2,5.6-18.9
				c3.8-5.6,9.4-10.1,17-13.4c7.6-3.3,16.8-5,27.7-5c7.6,0,15.1,0.9,22.4,2.7c7.3,1.8,13.7,4.4,19.1,7.9l-8.5,21
				c-11-6.3-22.1-9.4-33.1-9.4c-7.7,0-13.5,1.3-17.2,3.8c-3.7,2.5-5.5,5.8-5.5,9.9c0,4.1,2.1,7.1,6.4,9.1c4.3,2,10.8,4,19.6,5.9
				c9.1,2.2,16.6,4.3,22.4,6.5c5.8,2.2,10.8,5.6,14.9,10.2c4.2,4.7,6.2,11,6.2,19c0,6.8-1.9,13.1-5.7,18.7
				c-3.8,5.6-9.5,10.1-17.2,13.4c-7.6,3.3-16.9,5-27.8,5C976.4,350.8,967.2,349.5,958.4,347z"/>
			<path d="M1076,229.2h27.7v119.5H1076V229.2z"/>
			<path d="M1231.8,234.5c7.8,3.5,13.8,8.5,18,15c4.2,6.5,6.3,14.2,6.3,23.1c0,8.8-2.1,16.4-6.3,23c-4.2,6.5-10.2,11.6-18,15
				c-7.8,3.5-17,5.2-27.6,5.2h-24.1v33h-27.7V229.2h51.7C1214.8,229.2,1224,231,1231.8,234.5z M1221.6,287.9
				c4.3-3.6,6.5-8.7,6.5-15.3c0-6.7-2.2-11.9-6.5-15.5c-4.3-3.6-10.6-5.4-19-5.4h-22.5v41.5h22.5
				C1211,293.3,1217.3,291.5,1221.6,287.9z"/>
		</g>
	</g>
	<g>
		<g>
			<g>
				<defs>
					<path id="XMLID_00000167366634541528617810000014012692159801615283_" d="M408.7,106.1c-1.5,5.3-4,10.4-7.6,14.7
						c-7.6,9.1-18.9,14.1-30.2,17.9c-1.3,0.4-2.7,0.9-3.7,1.9c-1.4,1.5-1.6,3.8-1.7,5.9c-0.5,6.9-2.6,13.8-6.9,19.3
						c-4.3,5.4-11,9.1-17.9,8.7c-3.1-0.2-6.2-1.2-9.2-2.1c-21.1-6.3-43.1-8.8-65-10.6c-13.2-1.1-26.8-2-39-7.3
						c-11-4.7-24.8-16-23.8-29.2c1.1-15.5-0.5-31.6,4.5-46.7c1.4-4.1,3.2-7.9,5.3-11.6C112.9,92.3,38.2,183.4,38.2,291.9
						c0,128,103.8,231.8,231.8,231.8s231.8-103.8,231.8-231.8C501.9,215.9,465.2,148.4,408.7,106.1z M270.1,410.9
						c-65.7,0-119-53.3-119-119c0-65.7,53.3-119,119-119s119,53.3,119,119C389,357.6,335.8,410.9,270.1,410.9z"/>
				</defs>
				<use xlink:href="#XMLID_00000167366634541528617810000014012692159801615283_"  style="overflow:visible;fill:#FEC401;"/>
				<clipPath id="XMLID_00000085252238078362578870000006225819251036348861_">
					<use xlink:href="#XMLID_00000167366634541528617810000014012692159801615283_"  style="overflow:visible;"/>
				</clipPath>
				
					<circle style="clip-path:url(#XMLID_00000085252238078362578870000006225819251036348861_);fill:#01A2FD;" cx="360.1" cy="429" r="92.4"/>
				
					<circle style="clip-path:url(#XMLID_00000085252238078362578870000006225819251036348861_);fill:#F97707;" cx="95.4" cy="261.5" r="37.8"/>
				
					<circle style="clip-path:url(#XMLID_00000085252238078362578870000006225819251036348861_);fill:#01A2FD;" cx="164.5" cy="355.7" r="68.6"/>
				
					<circle style="clip-path:url(#XMLID_00000085252238078362578870000006225819251036348861_);fill:#014DAF;" cx="68.6" cy="207.4" r="68.6"/>
				
					<circle style="clip-path:url(#XMLID_00000085252238078362578870000006225819251036348861_);fill:#F97707;" cx="198" cy="161.8" r="56"/>
				
					<circle style="clip-path:url(#XMLID_00000085252238078362578870000006225819251036348861_);fill:#01A2FD;" cx="179.3" cy="84.9" r="55.5"/>
				
					<circle style="clip-path:url(#XMLID_00000085252238078362578870000006225819251036348861_);fill:#F97707;" cx="449.1" cy="194.5" r="56"/>
				
					<circle style="clip-path:url(#XMLID_00000085252238078362578870000006225819251036348861_);fill:#01A2FD;" cx="437.8" cy="248.5" r="37.1"/>
				
					<circle style="clip-path:url(#XMLID_00000085252238078362578870000006225819251036348861_);fill:#014DAF;" cx="339.2" cy="161.5" r="37.1"/>
				
					<circle style="clip-path:url(#XMLID_00000085252238078362578870000006225819251036348861_);fill:#014DAF;" cx="274.5" cy="90.5" r="26.5"/>
				
					<circle style="clip-path:url(#XMLID_00000085252238078362578870000006225819251036348861_);fill:#F97707;" cx="190.5" cy="466.9" r="56"/>
				
					<circle style="clip-path:url(#XMLID_00000085252238078362578870000006225819251036348861_);fill:#014DAF;" cx="63.1" cy="364.7" r="41.4"/>
				
					<circle style="clip-path:url(#XMLID_00000085252238078362578870000006225819251036348861_);fill:#014DAF;" cx="280.7" cy="485.9" r="75.5"/>
				
					<circle style="clip-path:url(#XMLID_00000085252238078362578870000006225819251036348861_);fill:#014DAF;" cx="426.8" cy="369.1" r="37.8"/>
				
					<circle style="clip-path:url(#XMLID_00000085252238078362578870000006225819251036348861_);fill:#F97707;" cx="515.7" cy="310.9" r="37.8"/>
			</g>
			<circle class="st3" cx="342.3" cy="75" r="20.3"/>
			<circle class="st4" cx="296.4" cy="50.5" r="12.1"/>
			<circle class="st5" cx="392.6" cy="118.8" r="20.3"/>
		</g>
		<g>
			<defs>
				<path id="XMLID_00000103232355176294507220000010148643860769768101_" d="M270.1,60.1c-128,0-231.8,103.8-231.8,231.8
					S142,523.7,270.1,523.7s231.8-103.8,231.8-231.8S398.1,60.1,270.1,60.1z M270.1,410.9c-65.7,0-119-53.3-119-119
					s53.3-119,119-119s119,53.3,119,119S335.8,410.9,270.1,410.9z"/>
			</defs>
			<clipPath id="XMLID_00000129183872893114090690000005404358707581496718_">
				<use xlink:href="#XMLID_00000103232355176294507220000010148643860769768101_"  style="overflow:visible;"/>
			</clipPath>
			
				<circle style="clip-path:url(#XMLID_00000129183872893114090690000005404358707581496718_);fill:#FEC401;" cx="279.3" cy="173" r="32.6"/>
			
				<circle style="clip-path:url(#XMLID_00000129183872893114090690000005404358707581496718_);fill:#01A2FD;" cx="345.7" cy="171.3" r="42.1"/>
			
				<circle style="clip-path:url(#XMLID_00000129183872893114090690000005404358707581496718_);fill:#FEC401;" cx="328.9" cy="130.9" r="20.3"/>
			
				<circle style="clip-path:url(#XMLID_00000129183872893114090690000005404358707581496718_);fill:#014DAF;" cx="276.9" cy="101.1" r="26.1"/>
			
				<circle style="clip-path:url(#XMLID_00000129183872893114090690000005404358707581496718_);fill:#F97707;" cx="197.5" cy="162.8" r="56"/>
			
				<circle style="clip-path:url(#XMLID_00000129183872893114090690000005404358707581496718_);fill:#01A2FD;" cx="178.9" cy="85.9" r="55.5"/>
		</g>
	</g>
</g>
</svg>
